<?xml version="1.0" encoding="utf-8"?>
<!-- Generator: Adobe Illustrator 23.0.4, SVG Export Plug-In . SVG Version: 6.00 Build 0)  -->
<svg version="1.1" id="Layer_1" xmlns="http://www.w3.org/2000/svg" xmlns:xlink="http://www.w3.org/1999/xlink" x="0px" y="0px"
	 viewBox="0 0 512 512" style="enable-background:new 0 0 512 512;" xml:space="preserve">
<style type="text/css">
	.st0{fill:#787878;}
</style>
<g>
	<path class="st0" d="M256.6,0C115.6,0,0.9,114.7,0.9,255.7s114.7,255.7,255.7,255.7s255.7-114.7,255.7-255.7S397.6,0,256.6,0z
		 M342.9,297.9v37l26.8,18.2c-27.4,31.8-67.9,52.1-113.1,52.1c-82.4,0-149.5-67.1-149.5-149.5s67.1-149.5,149.5-149.5
		c45.2,0,85.7,20.3,113.1,52.1l-26.8,18.2v37l105.5-71.4c19.8,33.3,31.2,72.1,31.2,113.6c0,41.5-11.4,80.3-31.2,113.6L342.9,297.9z
		 M256.6,478.7c-122.9,0-223-100-223-223s100-223,223-223c70.5,0,133.4,32.9,174.3,84.1l-37.3,25.2c-32.7-39.4-81.9-64.5-137-64.5
		c-98.2,0-178.1,79.9-178.1,178.1s79.9,178.1,178.1,178.1c55.1,0,104.3-25.2,137-64.6l37.3,25.3C390,445.8,327.1,478.7,256.6,478.7z
		"/>
	<path class="st0" d="M270,239.7l-17-7c-12.4-5.1-18.6-11.8-18.6-20.1c0-6,2.4-11,7.1-15c4.7-4,10.6-6.1,17.8-6.1
		c5.8,0,10.6,1.2,14.3,3.5c3.5,2.1,7.3,6.5,11.2,13.3l20.9-12.4c-11-19.2-26.4-28.7-46.1-28.7c-14.6,0-26.8,4.3-36.6,13
		c-9.8,8.6-14.7,19.3-14.7,32.2c0,19,11.7,33.4,35,43.3l16.5,6.9c4.3,1.8,8,3.8,11,5.8c3.1,2,5.6,4.2,7.6,6.5c2,2.3,3.4,4.9,4.3,7.6
		c0.9,2.8,1.4,5.8,1.4,9.1c0,8.3-2.7,15.1-8,20.4c-5.3,5.4-12,8.1-20,8.1c-10.2,0-17.9-3.7-23.2-11c-2.9-3.8-5-10.8-6.2-20.8
		l-26.1,5.7c2.4,15.9,8.3,28.3,17.8,37c9.7,8.8,21.9,13.2,36.7,13.2c15.6,0,28.7-5.2,39.2-15.5c10.5-10.2,15.7-23.2,15.7-38.9
		c0-11.7-3.2-21.6-9.6-29.7C294,252.1,283.9,245.3,270,239.7z"/>
</g>
</svg>
